<mxfile host="app.diagrams.net" agent="Mozilla/5.0 (X11; Linux x86_64) AppleWebKit/537.36 (KHTML, like Gecko) Chrome/128.0.0.0 Safari/537.36" version="24.7.16">
  <diagram name="Page-1" id="Mr_puJw_W2L0XATcxUPi">
    <mxGraphModel grid="1" page="1" gridSize="10" guides="1" tooltips="1" connect="1" arrows="1" fold="1" pageScale="1" pageWidth="827" pageHeight="1169" math="0" shadow="0">
      <root>
        <mxCell id="0" />
        <mxCell id="1" parent="0" />
        <mxCell id="41v7Ckg2XiBFa_iJi8hw-3" style="edgeStyle=orthogonalEdgeStyle;rounded=0;orthogonalLoop=1;jettySize=auto;html=1;exitX=1;exitY=0.5;exitDx=0;exitDy=0;entryX=0;entryY=0.5;entryDx=0;entryDy=0;" edge="1" parent="1" source="41v7Ckg2XiBFa_iJi8hw-1" target="41v7Ckg2XiBFa_iJi8hw-7">
          <mxGeometry relative="1" as="geometry">
            <mxPoint x="490" y="282" as="targetPoint" />
          </mxGeometry>
        </mxCell>
        <mxCell id="41v7Ckg2XiBFa_iJi8hw-1" value="mpc" style="rounded=1;whiteSpace=wrap;html=1;strokeWidth=2;fillColor=none;" vertex="1" parent="1">
          <mxGeometry x="350" y="252" width="50" height="60" as="geometry" />
        </mxCell>
        <mxCell id="41v7Ckg2XiBFa_iJi8hw-2" value="" style="endArrow=classic;html=1;rounded=0;entryX=0;entryY=0.5;entryDx=0;entryDy=0;" edge="1" parent="1" target="41v7Ckg2XiBFa_iJi8hw-1">
          <mxGeometry width="50" height="50" relative="1" as="geometry">
            <mxPoint x="270" y="282" as="sourcePoint" />
            <mxPoint x="410" y="362" as="targetPoint" />
          </mxGeometry>
        </mxCell>
        <mxCell id="41v7Ckg2XiBFa_iJi8hw-4" value="assembly" style="text;html=1;align=center;verticalAlign=middle;whiteSpace=wrap;rounded=0;" vertex="1" parent="1">
          <mxGeometry x="404" y="259" width="60" height="30" as="geometry" />
        </mxCell>
        <mxCell id="41v7Ckg2XiBFa_iJi8hw-5" value="Millipascal source" style="text;html=1;align=center;verticalAlign=middle;whiteSpace=wrap;rounded=0;" vertex="1" parent="1">
          <mxGeometry x="280" y="252" width="60" height="30" as="geometry" />
        </mxCell>
        <mxCell id="41v7Ckg2XiBFa_iJi8hw-8" style="edgeStyle=orthogonalEdgeStyle;rounded=0;orthogonalLoop=1;jettySize=auto;html=1;exitX=1;exitY=0.5;exitDx=0;exitDy=0;" edge="1" parent="1" source="41v7Ckg2XiBFa_iJi8hw-7">
          <mxGeometry relative="1" as="geometry">
            <mxPoint x="560" y="282" as="targetPoint" />
          </mxGeometry>
        </mxCell>
        <mxCell id="41v7Ckg2XiBFa_iJi8hw-7" value="fasm" style="rounded=1;whiteSpace=wrap;html=1;strokeWidth=2;fillColor=none;" vertex="1" parent="1">
          <mxGeometry x="470" y="252" width="50" height="60" as="geometry" />
        </mxCell>
        <mxCell id="41v7Ckg2XiBFa_iJi8hw-9" value="elf" style="text;html=1;align=center;verticalAlign=middle;whiteSpace=wrap;rounded=0;" vertex="1" parent="1">
          <mxGeometry x="520" y="259" width="30" height="30" as="geometry" />
        </mxCell>
      </root>
    </mxGraphModel>
  </diagram>
</mxfile>
